<svg width="168" height="57" viewBox="0 0 168 57" fill="none" xmlns="http://www.w3.org/2000/svg">
<g clip-path="url(#clip0_46_255)">
<path d="M159.6 0.920837H8.39995C4.14736 0.920837 0.699951 4.36824 0.699951 8.62084V47.8208C0.699951 52.0734 4.14736 55.5208 8.39995 55.5208H159.6C163.853 55.5208 167.3 52.0734 167.3 47.8208V8.62084C167.3 4.36824 163.853 0.920837 159.6 0.920837Z" fill="white"/>
<path d="M159.6 0.920837H8.39995C4.14736 0.920837 0.699951 4.36824 0.699951 8.62084V47.8208C0.699951 52.0734 4.14736 55.5208 8.39995 55.5208H159.6C163.853 55.5208 167.3 52.0734 167.3 47.8208V8.62084C167.3 4.36824 163.853 0.920837 159.6 0.920837Z" stroke="black"/>
<path d="M34.5862 29.289C34.6032 28.0012 34.9536 26.7384 35.6049 25.6182C36.256 24.4981 37.1869 23.557 38.3107 22.8825C37.5967 21.887 36.6549 21.0678 35.5599 20.4899C34.4649 19.9118 33.247 19.5912 32.0028 19.5532C29.3488 19.2813 26.7761 21.1037 25.4237 21.1037C24.0451 21.1037 21.9629 19.5802 19.7206 19.6253C18.2702 19.671 16.8568 20.0828 15.6179 20.8204C14.3791 21.558 13.357 22.5963 12.6514 23.8344C9.59487 29.0008 11.8748 36.594 14.8027 40.7703C16.2675 42.8153 17.9796 45.0995 20.2199 45.0186C22.412 44.9297 23.2307 43.6537 25.8768 43.6537C28.4985 43.6537 29.2667 45.0186 31.5523 44.9671C33.9046 44.9297 35.3866 42.913 36.8002 40.8486C37.8527 39.3914 38.6626 37.781 39.1999 36.0769C37.8333 35.5126 36.6671 34.568 35.8467 33.3609C35.0261 32.1539 34.5878 30.7376 34.5862 29.289Z" fill="black"/>
<path d="M30.2691 16.8068C31.5517 15.3036 32.1836 13.3715 32.0306 11.4208C30.071 11.6218 28.2611 12.5361 26.9612 13.9816C26.3256 14.6877 25.8388 15.5093 25.5287 16.3992C25.2185 17.2892 25.0911 18.2302 25.1537 19.1682C26.1337 19.178 27.1033 18.9706 27.9894 18.5615C28.8754 18.1526 29.655 17.5526 30.2691 16.8068Z" fill="black"/>
<path d="M51.5074 12.1229H54.4052C56.9092 12.1229 58.1273 13.6118 58.1273 16.3126C58.1273 19.0135 56.8969 20.5208 54.4052 20.5208H51.5074V12.1229ZM52.9041 13.298V19.3457H54.2514C55.9125 19.3457 56.6939 18.3429 56.6939 16.3311C56.6939 14.3069 55.9064 13.298 54.2514 13.298H52.9041ZM62.5448 13.9071C64.2428 13.9071 65.4302 15.0083 65.4302 16.8356V17.6784C65.4302 19.5672 64.2428 20.6316 62.5448 20.6316C60.8221 20.6316 59.647 19.5795 59.647 17.6846V16.8418C59.647 15.0638 60.8405 13.9071 62.5448 13.9071ZM62.5509 15.0083C61.5789 15.0083 61.0252 15.8205 61.0252 16.9094V17.6354C61.0252 18.7244 61.5419 19.5303 62.5509 19.5303C63.5476 19.5303 64.0583 18.7305 64.0583 17.6354V16.9094C64.0583 15.8205 63.5229 15.0083 62.5509 15.0083ZM75.4585 14.0178L73.7481 20.5208H72.3578L70.9981 15.7221H70.9611L69.6261 20.5208H68.2296L66.4453 14.0178H67.9157L68.9617 18.9766H69.0231L70.3337 14.0178H71.6194L72.9668 18.9766H73.0284L74.0927 14.0178H75.4585ZM76.812 20.5208V14.0178H78.1532V15.1867H78.221C78.387 14.6761 78.8608 13.9194 80.1773 13.9194C81.4879 13.9194 82.3676 14.6453 82.3676 16.1281V20.5208H81.0018V16.5279C81.0018 15.5374 80.4851 15.0821 79.7159 15.0821C78.7069 15.0821 78.1779 15.8573 78.1779 16.9094V20.5208H76.812ZM84.4347 20.5208V11.6799H85.8006V20.5208H84.4347ZM90.4888 13.9071C92.1868 13.9071 93.3742 15.0083 93.3742 16.8356V17.6784C93.3742 19.5672 92.1868 20.6316 90.4888 20.6316C88.7661 20.6316 87.5909 19.5795 87.5909 17.6846V16.8418C87.5909 15.0638 88.7846 13.9071 90.4888 13.9071ZM90.4949 15.0083C89.5228 15.0083 88.9691 15.8205 88.9691 16.9094V17.6354C88.9691 18.7244 89.4859 19.5303 90.4949 19.5303C91.4916 19.5303 92.0022 18.7305 92.0022 17.6354V16.9094C92.0022 15.8205 91.4669 15.0083 90.4949 15.0083ZM96.9118 20.6193C95.6506 20.6193 94.783 19.8441 94.783 18.6321C94.783 17.4816 95.5828 16.7064 97.084 16.7064H98.7266V16.0973C98.7266 15.3529 98.253 15.0022 97.5023 15.0022C96.7641 15.0022 96.4319 15.3098 96.3273 15.7404H95.0291C95.1092 14.6515 95.9273 13.9194 97.5455 13.9194C98.936 13.9194 100.086 14.4978 100.086 16.1157V20.5208H98.7883V19.6779H98.7266C98.4375 20.1763 97.8715 20.6193 96.9118 20.6193ZM97.3363 19.5611C98.1115 19.5611 98.7266 19.0319 98.7266 18.3245V17.6231H97.2993C96.5057 17.6231 96.155 18.023 96.155 18.5643C96.155 19.2411 96.721 19.5611 97.3363 19.5611ZM104.295 13.9317C105.211 13.9317 105.913 14.3377 106.165 14.996H106.233V11.6799H107.598V20.5208H106.269V19.4811H106.202C106.005 20.1393 105.224 20.6069 104.276 20.6069C102.781 20.6069 101.809 19.5427 101.809 17.8261V16.7126C101.809 14.996 102.8 13.9317 104.295 13.9317ZM104.676 15.0515C103.766 15.0515 103.2 15.7282 103.2 16.9094V17.6231C103.2 18.8105 103.772 19.4872 104.707 19.4872C105.63 19.4872 106.233 18.8166 106.233 17.7092V16.7249C106.233 15.7221 105.574 15.0515 104.676 15.0515ZM115.098 13.9071C116.796 13.9071 117.984 15.0083 117.984 16.8356V17.6784C117.984 19.5672 116.796 20.6316 115.098 20.6316C113.375 20.6316 112.2 19.5795 112.2 17.6846V16.8418C112.2 15.0638 113.394 13.9071 115.098 13.9071ZM115.104 15.0083C114.132 15.0083 113.578 15.8205 113.578 16.9094V17.6354C113.578 18.7244 114.095 19.5303 115.104 19.5303C116.101 19.5303 116.612 18.7305 116.612 17.6354V16.9094C116.612 15.8205 116.076 15.0083 115.104 15.0083ZM119.743 20.5208V14.0178H121.084V15.1867H121.152C121.318 14.6761 121.792 13.9194 123.108 13.9194C124.419 13.9194 125.299 14.6453 125.299 16.1281V20.5208H123.933V16.5279C123.933 15.5374 123.416 15.0821 122.647 15.0821C121.638 15.0821 121.109 15.8573 121.109 16.9094V20.5208H119.743ZM130.584 14.0609V12.4367H131.919V14.0609H133.377V15.1314H131.919V18.5828C131.919 19.2904 132.183 19.4872 132.915 19.4872C133.1 19.4872 133.346 19.4749 133.451 19.4626V20.5085C133.34 20.527 132.885 20.564 132.577 20.564C130.996 20.564 130.565 19.9979 130.565 18.6936V15.1314H129.575V14.0609H130.584ZM135.099 20.5208V11.6799H136.459V15.1867H136.527C136.668 14.7254 137.197 13.9194 138.502 13.9194C139.769 13.9194 140.673 14.6515 140.673 16.1342V20.5208H139.314V16.5341C139.314 15.5436 138.766 15.0821 137.991 15.0821C137.013 15.0821 136.459 15.8513 136.459 16.9094V20.5208H135.099ZM145.257 20.6316C143.485 20.6316 142.384 19.5427 142.384 17.7092V16.8295C142.384 14.9837 143.59 13.9071 145.177 13.9071C146.807 13.9071 147.958 15.0391 147.958 16.8295V17.5923H143.737V17.9122C143.737 18.8474 144.291 19.5365 145.25 19.5365C145.964 19.5365 146.457 19.1981 146.549 18.792H147.883C147.804 19.5427 147.01 20.6316 145.257 20.6316ZM143.737 16.7002H146.622V16.6141C146.622 15.6358 146.051 14.9837 145.183 14.9837C144.316 14.9837 143.737 15.6358 143.737 16.6141V16.7002Z" fill="black"/>
<path d="M53.4885 42.9208H50.6461L56.4292 26.1249H59.5547L65.3255 42.9208H62.3725L60.8836 38.2696H54.9896L53.4885 42.9208ZM58.0042 29.0288H57.8935L55.6172 36.1286H60.256L58.0042 29.0288ZM73.1702 43.1054C71.4844 43.1054 70.2047 42.3055 69.5156 41.112H69.4172V47.2398H66.6855V29.9148H69.3434V31.8221H69.4418C70.1555 30.5793 71.4844 29.7425 73.2316 29.7425C76.1478 29.7425 78.2274 31.9451 78.2274 35.8333V36.99C78.2274 40.8536 76.1725 43.1054 73.1702 43.1054ZM72.5425 40.8536C74.2776 40.8536 75.4587 39.4633 75.4587 36.8423V35.9318C75.4587 33.4094 74.3513 31.9696 72.4934 31.9696C70.5862 31.9696 69.3925 33.5201 69.3925 35.9194V36.8423C69.3925 39.3032 70.5985 40.8536 72.5425 40.8536ZM87.0562 43.1054C85.3705 43.1054 84.0909 42.3055 83.4018 41.112H83.3034V47.2398H80.5717V29.9148H83.2294V31.8221H83.328C84.0416 30.5793 85.3705 29.7425 87.1178 29.7425C90.034 29.7425 92.1136 31.9451 92.1136 35.8333V36.99C92.1136 40.8536 90.0586 43.1054 87.0562 43.1054ZM86.4287 40.8536C88.1637 40.8536 89.3449 39.4633 89.3449 36.8423V35.9318C89.3449 33.4094 88.2375 31.9696 86.3794 31.9696C84.4722 31.9696 83.2787 33.5201 83.2787 35.9194V36.8423C83.2787 39.3032 84.4845 40.8536 86.4287 40.8536ZM97.7742 38.2573H100.506C100.629 39.7094 101.909 40.9522 104.283 40.9522C106.461 40.9522 107.753 39.9309 107.753 38.3435C107.753 37.0638 106.892 36.3747 105.095 35.9441L102.339 35.255C100.174 34.7506 98.2295 33.4585 98.2295 30.7268C98.2295 27.5154 101.035 25.7559 104.296 25.7559C107.557 25.7559 110.276 27.5154 110.337 30.6531H107.655C107.532 29.2258 106.437 28.0444 104.259 28.0444C102.339 28.0444 101.035 28.955 101.035 30.5177C101.035 31.6129 101.798 32.4004 103.361 32.7571L106.104 33.4339C108.627 34.0492 110.547 35.2427 110.547 38.0974C110.547 41.3951 107.876 43.2531 104.074 43.2531C99.3985 43.2531 97.8358 40.5214 97.7742 38.2573ZM113.875 29.9148V26.7525H116.558V29.9148H119.092V32.105H116.558V39.0448C116.558 40.4599 117.087 40.8536 118.551 40.8536C118.785 40.8536 119.006 40.8536 119.166 40.8291V42.9208C118.945 42.9578 118.428 43.0069 117.874 43.0069C114.712 43.0069 113.838 41.8749 113.838 39.2663V32.105H112.042V29.9148H113.875ZM126.469 29.6934C130.21 29.6934 132.24 32.3265 132.24 35.8703V36.9161C132.24 40.583 130.222 43.1423 126.469 43.1423C122.716 43.1423 120.674 40.583 120.674 36.9161V35.8703C120.674 32.3388 122.729 29.6934 126.469 29.6934ZM126.469 31.8835C124.439 31.8835 123.43 33.5446 123.43 35.9071V36.9038C123.43 39.2295 124.427 40.9398 126.469 40.9398C128.512 40.9398 129.496 39.2418 129.496 36.9038V35.9071C129.496 33.5323 128.5 31.8835 126.469 31.8835ZM134.548 42.9208V29.9148H137.279V31.6251H137.378C137.71 30.8131 138.682 29.7302 140.491 29.7302C140.848 29.7302 141.155 29.7548 141.414 29.8041V32.2157C141.18 32.1543 140.7 32.1173 140.245 32.1173C138.055 32.1173 137.316 33.4708 137.316 35.218V42.9208H134.548ZM148.04 43.1423C144.558 43.1423 142.344 40.8413 142.344 36.99V35.6733C142.344 32.0435 144.508 29.6934 147.93 29.6934C151.399 29.6934 153.49 32.1296 153.49 35.7964V37.0392H145.037V37.3469C145.037 39.537 146.219 40.989 148.077 40.989C149.467 40.989 150.415 40.2999 150.748 39.1802H153.343C152.95 41.2844 151.252 43.1423 148.04 43.1423ZM145.037 35.1319H150.821V35.1073C150.821 33.2617 149.677 31.8097 147.942 31.8097C146.182 31.8097 145.037 33.2617 145.037 35.1073V35.1319Z" fill="black"/>
</g>
<defs>
<clipPath id="clip0_46_255">
<rect width="168" height="56" fill="white" transform="translate(0 0.220825)"/>
</clipPath>
</defs>
</svg>
