<svg width="195" height="33" viewBox="0 0 195 33" fill="none" xmlns="http://www.w3.org/2000/svg">
<g clip-path="url(#clip0_46_1228)">
<path d="M56.8607 9.99821C56.0746 9.6869 55.1614 9.53125 54.1237 9.53125C51.7785 9.53125 49.9314 10.2291 48.5824 11.6222C48.5746 11.63 48.5669 11.6404 48.5591 11.6482V9.97746H41.7051V31.6083H48.5591V19.7681C48.5591 18.375 48.8937 17.327 49.5604 16.6317C50.2272 15.9338 51.1403 15.5862 52.2974 15.5862C52.8603 15.5862 53.3662 15.6744 53.8098 15.8534C54.256 16.0324 54.6114 16.2685 54.8786 16.5668L58.9283 11.4043C58.3342 10.7817 57.6441 10.3147 56.8581 10.0034L56.8607 9.99821Z" fill="#4040F2"/>
<path d="M75.2643 11.7649C74.6806 11.2097 74.0087 10.748 73.2382 10.377C72.0656 9.81402 70.7529 9.53125 69.3001 9.53125C67.3129 9.53125 65.5384 10.0138 63.9819 10.9788C62.4254 11.9439 61.1931 13.2799 60.2877 14.9844C59.3823 16.6914 58.9309 18.6267 58.9309 20.7929C58.9309 22.9591 59.3823 24.8814 60.2877 26.5573C61.1931 28.2332 62.4305 29.5692 64.0052 30.5628C65.5774 31.5564 67.344 32.0545 69.3027 32.0545C70.7866 32.0545 72.1149 31.7717 73.2849 31.2088C74.0372 30.8482 74.6961 30.3968 75.2643 29.8572V31.6109H82.1183V9.97746H75.2643V11.7649ZM70.7243 25.8646C69.8034 25.8646 68.981 25.6493 68.2546 25.2186C67.5282 24.788 66.8952 24.1887 66.4646 23.4156C66.034 22.6452 65.7849 21.7683 65.7849 20.7903C65.7849 19.8122 66.034 18.9354 66.4646 18.1649C66.8952 17.3944 67.5282 16.7925 68.2546 16.3619C68.981 15.9313 69.8034 15.7159 70.7243 15.7159C71.6453 15.7159 72.5196 15.9313 73.2615 16.3619C74.0035 16.7925 74.5664 17.3866 74.953 18.1415C75.3395 18.8991 75.5315 19.7655 75.5315 20.7462C75.5315 22.2586 75.093 23.4909 74.2188 24.4404C73.3419 25.3899 72.1771 25.8646 70.7243 25.8646Z" fill="#4040F2"/>
<path d="M86.9046 15.7186H95.6576L86.2197 27.6028V31.6083H105.402V25.8647H95.8885L105.402 13.9831V9.97754H86.9046V15.7186Z" fill="#4040F2"/>
<path d="M123.657 28.3811C122.648 28.8118 121.551 29.0271 120.365 29.0271C118.91 29.0271 117.605 28.6873 116.448 28.0024C115.291 27.3201 114.385 26.3784 113.734 25.1773C113.081 23.9761 112.754 22.6193 112.754 21.1043C112.754 19.5892 113.081 18.248 113.734 17.0754C114.385 15.9028 115.291 14.9767 116.448 14.2944C117.605 13.6121 118.91 13.2697 120.365 13.2697C121.551 13.2697 122.643 13.485 123.636 13.9156C124.63 14.3463 125.484 14.9611 126.194 15.7627L128.285 13.6251C127.336 12.5563 126.179 11.7261 124.814 11.132C123.45 10.5379 121.966 10.2422 120.363 10.2422C118.316 10.2422 116.469 10.7169 114.821 11.6664C113.174 12.6159 111.877 13.913 110.927 15.5604C109.978 17.2077 109.503 19.0548 109.503 21.1017C109.503 23.1486 109.978 25.0034 110.927 26.6638C111.877 28.3267 113.174 29.6394 114.821 30.6018C116.469 31.5669 118.316 32.0494 120.363 32.0494C121.966 32.0494 123.455 31.7537 124.835 31.1596C126.215 30.5655 127.393 29.7198 128.374 28.6224L126.283 26.5314C125.541 27.3331 124.664 27.9479 123.657 28.3785V28.3811Z" fill="#4040F2"/>
<path d="M193.665 14.3381C192.968 13.0617 191.997 12.0604 190.75 11.334C189.504 10.6076 188.08 10.2444 186.477 10.2444C184.874 10.2444 183.434 10.5998 182.16 11.3132C181.055 11.9306 180.149 12.7478 179.444 13.7674V0.0957031H176.284V31.608H179.444V19.2801C179.444 18.0946 179.711 17.0413 180.245 16.1203C180.78 15.202 181.506 14.4808 182.427 13.9619C183.346 13.4431 184.401 13.1837 185.587 13.1837C187.367 13.1837 188.806 13.7544 189.904 14.8959C191.001 16.0373 191.551 17.5161 191.551 19.3242V31.608H194.711V18.7898C194.711 17.0984 194.361 15.6145 193.665 14.3381Z" fill="#4040F2"/>
<path d="M149.057 14.1433C148.998 14.0525 148.943 13.9591 148.878 13.8709C148.077 12.7294 147.047 11.8396 145.786 11.2014C144.525 10.5632 143.093 10.2441 141.49 10.2441C139.531 10.2441 137.773 10.7267 136.216 11.6917C134.659 12.6568 133.419 13.9617 132.498 15.609C131.577 17.2564 131.118 19.1191 131.118 21.1944C131.118 23.2698 131.577 25.0806 132.498 26.7124C133.417 28.3442 134.665 29.6439 136.237 30.6064C137.809 31.5714 139.576 32.054 141.534 32.054C143.137 32.054 144.562 31.7349 145.807 31.0967C147.052 30.4585 148.069 29.5609 148.855 28.4038C148.925 28.3001 148.99 28.1937 149.055 28.0873V31.6077H152.215V10.6878H149.055V14.1433H149.057ZM147.275 26.8888C145.97 28.3442 144.219 29.0706 142.024 29.0706C140.572 29.0706 139.264 28.7307 138.107 28.0458C136.95 27.3636 136.037 26.4296 135.37 25.2415C134.704 24.0559 134.369 22.6887 134.369 21.1477C134.369 19.6068 134.704 18.2396 135.37 17.054C136.037 15.8685 136.942 14.9319 138.086 14.2497C139.228 13.5674 140.528 13.2249 141.98 13.2249C143.433 13.2249 144.71 13.5596 145.807 14.2263C146.904 14.893 147.75 15.8218 148.344 17.0073C148.938 18.1955 149.234 19.573 149.234 21.1452C149.234 23.5189 148.58 25.4334 147.275 26.8862V26.8888Z" fill="#4040F2"/>
<path d="M161.647 13.8709C162.345 13.352 163.362 13.0926 164.696 13.0926C165.853 13.0926 166.898 13.3157 167.835 13.7593C168.769 14.2056 169.534 14.8282 170.128 15.6298L172.175 13.5829C171.402 12.4856 170.38 11.6554 169.103 11.0899C167.827 10.5269 166.403 10.2441 164.83 10.2441C163.258 10.2441 162.026 10.488 160.957 10.9783C159.888 11.4686 159.058 12.1509 158.464 13.0252C157.87 13.902 157.574 14.9319 157.574 16.1175C157.574 17.3939 157.857 18.4108 158.42 19.1657C158.983 19.9233 159.704 20.5173 160.578 20.9454C161.453 21.376 162.382 21.7315 163.36 22.0142C164.338 22.297 165.274 22.5927 166.164 22.9041C167.054 23.2154 167.772 23.6175 168.322 24.1052C168.872 24.5955 169.145 25.2856 169.145 26.1754C169.145 27.1249 168.75 27.8668 167.964 28.4013C167.178 28.9357 166.102 29.2029 164.737 29.2029C163.373 29.2029 162.252 28.959 161.199 28.4687C160.145 27.9784 159.204 27.2313 158.373 26.2221L156.327 28.2689C156.978 29.042 157.727 29.7088 158.573 30.2717C159.419 30.8347 160.361 31.2731 161.398 31.5844C162.436 31.8957 163.52 32.0514 164.646 32.0514C166.96 32.0514 168.792 31.4962 170.143 30.3833C171.492 29.2703 172.17 27.7786 172.17 25.9108C172.17 24.5747 171.895 23.5163 171.347 22.7276C170.797 21.9416 170.079 21.319 169.189 20.8572C168.299 20.398 167.365 20.027 166.384 19.7443C165.404 19.4615 164.478 19.1813 163.603 18.8985C162.727 18.6158 162.008 18.2474 161.445 17.7856C160.882 17.3264 160.599 16.696 160.599 15.8944C160.599 15.0928 160.947 14.3897 161.645 13.8683L161.647 13.8709Z" fill="#4040F2"/>
<path d="M13.7028 6.9497V13.8011H0V0.0957031H6.8514V6.9471H13.7028V6.9497ZM6.8514 17.9259C6.8514 17.9259 6.8514 17.9156 6.8514 17.9104H0C0 19.7938 0.383948 21.6046 1.07921 23.2441C2.12209 25.7061 3.85505 27.7919 6.0394 29.2706C7.13158 30.0099 8.3405 30.5936 9.62983 30.9957C10.9192 31.3979 12.2915 31.6132 13.7028 31.6132V24.7618C13.7028 24.7618 13.6924 24.7618 13.6872 24.7618C9.91261 24.7618 6.8514 21.7006 6.8514 17.9259Z" fill="#4040F2"/>
<path d="M37.5646 14.694C36.6151 13.0622 35.3231 11.7858 33.6914 10.8674C32.0596 9.94908 30.1606 9.4873 27.9944 9.4873C25.8282 9.4873 23.8254 9.97762 22.0743 10.9556C20.3232 11.9337 18.9431 13.2775 17.9365 14.9845C16.9274 16.6915 16.4241 18.6113 16.4241 20.7489C16.4241 22.8866 16.9429 24.9023 17.9806 26.6249C19.0183 28.3449 20.4426 29.6887 22.2533 30.6537C24.0615 31.6188 26.1395 32.1013 28.4847 32.1013C30.324 32.1013 31.9999 31.7978 33.515 31.1882C35.0274 30.5811 36.3193 29.6368 37.3882 28.363L33.6057 24.6247C32.952 25.3667 32.1971 25.9218 31.3358 26.2928C30.4745 26.6638 29.525 26.848 28.4873 26.848C27.3303 26.848 26.3834 26.6041 25.5377 26.1138C24.6919 25.6235 24.0927 24.9205 23.6335 23.9995C23.4908 23.7141 23.3715 23.4132 23.2807 23.0941C23.2547 22.9981 23.1847 22.7102 23.1847 22.7102H38.7164C38.8202 22.2977 38.8876 21.9189 38.9239 21.5739C38.9681 21.1432 38.9914 20.7204 38.9914 20.3053C38.9914 18.1988 38.5167 16.3283 37.5672 14.6965L37.5646 14.694ZM25.3586 15.4515C26.1447 14.9482 27.0164 14.694 28.0852 14.694C29.0632 14.694 29.9012 14.9171 30.599 15.3607C31.2969 15.8069 31.8235 16.4373 32.1789 17.2519C32.2723 17.4672 32.3527 17.6981 32.4254 17.9394H23.4182C23.47 17.8019 23.5245 17.6695 23.5868 17.5398C24.0174 16.65 24.57 15.9522 25.3561 15.4489L25.3586 15.4515Z" fill="#4040F2"/>
</g>
<defs>
<clipPath id="clip0_46_1228">
<rect width="194.711" height="32" fill="white" transform="translate(0 0.0957031)"/>
</clipPath>
</defs>
</svg>
