<svg width="168" height="57" viewBox="0 0 168 57" fill="none" xmlns="http://www.w3.org/2000/svg">
<g clip-path="url(#clip0_46_262)">
<path d="M159.6 0.920837H8.39995C4.14736 0.920837 0.699951 4.36824 0.699951 8.62084V47.8208C0.699951 52.0734 4.14736 55.5208 8.39995 55.5208H159.6C163.853 55.5208 167.3 52.0734 167.3 47.8208V8.62084C167.3 4.36824 163.853 0.920837 159.6 0.920837Z" fill="white"/>
<path d="M159.6 0.920837H8.39995C4.14736 0.920837 0.699951 4.36824 0.699951 8.62084V47.8208C0.699951 52.0734 4.14736 55.5208 8.39995 55.5208H159.6C163.853 55.5208 167.3 52.0734 167.3 47.8208V8.62084C167.3 4.36824 163.853 0.920837 159.6 0.920837Z" stroke="black"/>
<path d="M24.9267 27.4672L11.3254 42.2291C11.3267 42.2318 11.3267 42.2357 11.328 42.2383C11.7457 43.8412 13.1765 45.0208 14.8756 45.0208C15.5551 45.0208 16.1927 44.8327 16.7394 44.5035L16.7828 44.4774L32.0921 35.4439L24.9267 27.4672Z" fill="#EA4335"/>
<path d="M38.6864 24.9535L38.6736 24.9444L32.064 21.0265L24.6176 27.8026L32.0908 35.4423L38.6647 31.5637C39.8169 30.9262 40.6001 29.6838 40.6001 28.252C40.6001 26.8281 39.8284 25.5923 38.6864 24.9535Z" fill="#FBBC04"/>
<path d="M11.3251 14.2114C11.2434 14.5197 11.2 14.8437 11.2 15.1781V41.2636C11.2 41.5981 11.2434 41.9221 11.3264 42.2291L25.394 27.8446L11.3251 14.2114Z" fill="#4285F4"/>
<path d="M25.0273 28.2208L32.0661 21.024L16.7748 11.9579C16.2191 11.6169 15.5701 11.421 14.8765 11.421C13.1774 11.421 11.7441 12.6032 11.3263 14.2074L11.3251 14.2114L25.0273 28.2208Z" fill="#34A853"/>
<path d="M61.054 16.6148C61.054 18.0148 60.6386 19.1302 59.808 19.9608C58.8746 20.9502 57.6474 21.4448 56.126 21.4448C54.67 21.4448 53.438 20.9408 52.43 19.9328C51.422 18.9248 50.918 17.6835 50.918 16.2088C50.918 14.7342 51.422 13.4928 52.43 12.4848C53.438 11.4768 54.67 10.9728 56.126 10.9728C56.8634 10.9728 57.5586 11.1035 58.212 11.3648C58.8654 11.6262 59.402 11.9948 59.822 12.4708L58.898 13.3948C58.59 13.0215 58.1886 12.7322 57.694 12.5268C57.2086 12.3122 56.686 12.2048 56.126 12.2048C55.034 12.2048 54.11 12.5828 53.354 13.3388C52.6074 14.1042 52.234 15.0608 52.234 16.2088C52.234 17.3568 52.6074 18.3135 53.354 19.0788C54.11 19.8348 55.034 20.2128 56.126 20.2128C57.1246 20.2128 57.9553 19.9328 58.618 19.3728C59.2806 18.8128 59.6633 18.0428 59.766 17.0628H56.126V15.8588H60.984C61.0306 16.1202 61.054 16.3722 61.054 16.6148ZM68.4709 11.1968V12.4288H63.9069V15.6068H68.0229V16.8108H63.9069V19.9888H68.4709V21.2208H62.6189V11.1968H68.4709ZM73.6228 12.4288V21.2208H72.3348V12.4288H69.5348V11.1968H76.4228V12.4288H73.6228ZM82.1315 21.2208H80.8435V11.1968H82.1315V21.2208ZM87.5681 12.4288V21.2208H86.2802V12.4288H83.4802V11.1968H90.3682V12.4288H87.5681ZM104.329 16.2088C104.329 17.6928 103.835 18.9342 102.845 19.9328C101.847 20.9408 100.624 21.4448 99.1774 21.4448C97.7214 21.4448 96.4988 20.9408 95.5094 19.9328C94.52 18.9342 94.0254 17.6928 94.0254 16.2088C94.0254 14.7248 94.52 13.4835 95.5094 12.4848C96.4988 11.4768 97.7214 10.9728 99.1774 10.9728C100.633 10.9728 101.856 11.4815 102.845 12.4988C103.835 13.4975 104.329 14.7342 104.329 16.2088ZM95.3414 16.2088C95.3414 17.3662 95.7054 18.3228 96.4334 19.0788C97.1707 19.8348 98.0854 20.2128 99.1774 20.2128C100.269 20.2128 101.179 19.8348 101.907 19.0788C102.645 18.3322 103.013 17.3755 103.013 16.2088C103.013 15.0422 102.645 14.0855 101.907 13.3388C101.179 12.5828 100.269 12.2048 99.1774 12.2048C98.0854 12.2048 97.1707 12.5828 96.4334 13.3388C95.7054 14.0948 95.3414 15.0515 95.3414 16.2088ZM107.137 21.2208H105.849V11.1968H107.417L112.289 18.9948H112.345L112.289 17.0628V11.1968H113.577V21.2208H112.233L107.137 13.0448H107.081L107.137 14.9768V21.2208Z" fill="black"/>
<path d="M130.925 44.1944H133.206V28.7782H130.925V44.1944ZM151.465 34.3313L148.851 41.0151H148.772L146.059 34.3313H143.602L147.671 43.6728L145.352 48.8694H147.729L154 34.3313H151.465ZM138.533 42.4431C137.785 42.4431 136.743 42.0671 136.743 41.1336C136.743 39.9447 138.04 39.4884 139.161 39.4884C140.162 39.4884 140.636 39.7067 141.245 40.0039C141.067 41.4319 139.849 42.4431 138.533 42.4431ZM138.808 33.9946C137.157 33.9946 135.446 34.7283 134.739 36.355L136.763 37.2071C137.196 36.355 138.001 36.0762 138.847 36.0762C140.027 36.0762 141.225 36.7902 141.245 38.0604V38.2184C140.832 37.9802 139.948 37.6239 138.866 37.6239C136.685 37.6239 134.463 38.8337 134.463 41.0941C134.463 43.1573 136.252 44.4866 138.256 44.4866C139.79 44.4866 140.636 43.7923 141.166 42.9784H141.245V44.1685H143.445V38.2577C143.445 35.5213 141.421 33.9946 138.808 33.9946ZM124.715 36.2082H121.472V30.9239H124.715C126.42 30.9239 127.388 32.3483 127.388 33.5655C127.388 34.7604 126.42 36.2082 124.715 36.2082ZM124.656 28.7782H119.193V44.1944H121.472V38.3539H124.656C127.183 38.3539 129.668 36.5066 129.668 33.5655C129.668 30.6243 127.183 28.7782 124.656 28.7782ZM94.8616 42.4457C93.2865 42.4457 91.9678 41.1151 91.9678 39.2874C91.9678 37.4401 93.2865 36.0885 94.8616 36.0885C96.4173 36.0885 97.6369 37.4401 97.6369 39.2874C97.6369 41.1151 96.4173 42.4457 94.8616 42.4457ZM97.4805 35.1945H97.4011C96.889 34.5792 95.9053 34.023 94.6649 34.023C92.0656 34.023 89.6839 36.3265 89.6839 39.2874C89.6839 42.2274 92.0656 44.5125 94.6649 44.5125C95.9053 44.5125 96.889 43.9563 97.4011 43.32H97.4805V44.076C97.4805 46.0823 96.4173 47.1553 94.704 47.1553C93.306 47.1553 92.4395 46.1415 92.0852 45.287L90.0969 46.1218C90.6677 47.5128 92.1841 49.2208 94.704 49.2208C97.3815 49.2208 99.646 47.6313 99.646 43.7577V34.3399H97.4805V35.1945ZM101.221 44.1944H103.505V28.777H101.221V44.1944ZM106.871 39.1086C106.812 37.0825 108.426 36.0491 109.587 36.0491C110.494 36.0491 111.262 36.5055 111.517 37.1615L106.871 39.1086ZM113.958 37.36C113.526 36.1885 112.206 34.023 109.509 34.023C106.832 34.023 104.607 36.1478 104.607 39.2678C104.607 42.2077 106.812 44.5125 109.764 44.5125C112.147 44.5125 113.526 43.0425 114.097 42.1879L112.325 40.9954C111.734 41.8698 110.927 42.4457 109.764 42.4457C108.603 42.4457 107.776 41.9092 107.245 40.8574L114.194 37.9556L113.958 37.36ZM58.5902 35.6323V37.857H63.8658C63.7081 39.1086 63.295 40.0224 62.6657 40.6576C61.897 41.4332 60.6958 42.2879 58.5902 42.2879C55.3408 42.2879 52.8013 39.6451 52.8013 36.3673C52.8013 33.0882 55.3408 30.4467 58.5902 30.4467C60.3425 30.4467 61.622 31.1422 62.5667 32.0364L64.1224 30.4664C62.8025 29.1951 61.0514 28.2208 58.5902 28.2208C54.1407 28.2208 50.4 31.8772 50.4 36.3673C50.4 40.8574 54.1407 44.5125 58.5902 44.5125C60.9914 44.5125 62.8025 43.7171 64.2201 42.2274C65.6781 40.7574 66.1301 38.6918 66.1301 37.0221C66.1301 36.5055 66.0911 36.0293 66.0117 35.6323H58.5902ZM72.1291 42.4457C70.554 42.4457 69.195 41.1348 69.195 39.2678C69.195 37.3798 70.554 36.0885 72.1291 36.0885C73.7032 36.0885 75.0621 37.3798 75.0621 39.2678C75.0621 41.1348 73.7032 42.4457 72.1291 42.4457ZM72.1291 34.023C69.2537 34.023 66.9111 36.228 66.9111 39.2678C66.9111 42.2879 69.2537 44.5125 72.1291 44.5125C75.0035 44.5125 77.3461 42.2879 77.3461 39.2678C77.3461 36.228 75.0035 34.023 72.1291 34.023ZM83.51 42.4457C81.9349 42.4457 80.5759 41.1348 80.5759 39.2678C80.5759 37.3798 81.9349 36.0885 83.51 36.0885C85.0853 36.0885 86.443 37.3798 86.443 39.2678C86.443 41.1348 85.0853 42.4457 83.51 42.4457ZM83.51 34.023C80.6358 34.023 78.2932 36.228 78.2932 39.2678C78.2932 42.2879 80.6358 44.5125 83.51 44.5125C86.3844 44.5125 88.727 42.2879 88.727 39.2678C88.727 36.228 86.3844 34.023 83.51 34.023Z" fill="black"/>
</g>
<defs>
<clipPath id="clip0_46_262">
<rect width="168" height="56" fill="white" transform="translate(0 0.220825)"/>
</clipPath>
</defs>
</svg>
