<svg width="32" height="33" viewBox="0 0 32 33" fill="none" xmlns="http://www.w3.org/2000/svg">
<path d="M16.0364 0.0957031H15.9636C7.14714 0.0957031 0 7.24283 0 16.0593V16.1321C0 24.9486 7.14714 32.0957 15.9636 32.0957H16.0364C24.8529 32.0957 32 24.9486 32 16.1321V16.0593C32 7.24283 24.8529 0.0957031 16.0364 0.0957031Z" fill="#4040F2"/>
<path d="M7.63142 10.7323C7.20988 10.3411 7.00024 9.85674 7.00024 9.28048C7.00024 8.70423 7.211 8.1986 7.63142 7.80621C8.05296 7.41494 8.59558 7.21875 9.2604 7.21875C9.92522 7.21875 10.4466 7.41494 10.867 7.80621C11.2885 8.19748 11.4981 8.68965 11.4981 9.28048C11.4981 9.87131 11.2874 10.3411 10.867 10.7323C10.4454 11.1236 9.91065 11.3198 9.2604 11.3198C8.61016 11.3198 8.05296 11.1236 7.63142 10.7323ZM11.1439 12.9768V24.9727H7.35338V12.9768H11.1439Z" fill="white"/>
<path d="M23.762 14.1617C24.5882 15.0586 25.0008 16.2896 25.0008 17.8569V24.7608H21.4009V18.3435C21.4009 17.5531 21.1958 16.9387 20.7865 16.5015C20.3773 16.0643 19.8258 15.8445 19.1351 15.8445C18.4445 15.8445 17.8929 16.0632 17.4837 16.5015C17.0745 16.9387 16.8693 17.5531 16.8693 18.3435V24.7608H13.2482V12.9431H16.8693V14.5104C17.236 13.988 17.7304 13.5754 18.3515 13.2716C18.9726 12.9678 19.671 12.8164 20.448 12.8164C21.8314 12.8164 22.9368 13.2649 23.762 14.1606V14.1617Z" fill="white"/>
</svg>
