<svg width="32" height="33" viewBox="0 0 32 33" fill="none" xmlns="http://www.w3.org/2000/svg">
<mask id="mask0_46_543" style="mask-type:luminance" maskUnits="userSpaceOnUse" x="0" y="0" width="32" height="33">
<path d="M32 0.729736H0V32.7297H32V0.729736Z" fill="white"/>
</mask>
<g mask="url(#mask0_46_543)">
<path d="M32 16.8914C32 8.20989 24.8366 1.17212 16 1.17212C7.16344 1.17212 0 8.20989 0 16.8914C0 25.573 7.16344 32.6108 16 32.6108C24.8366 32.6108 32 25.573 32 16.8914Z" fill="#4040F2"/>
<path d="M19.4765 12.4491V15.8665H12.5215V9.03174H15.9999V12.4491H19.4783H19.4765ZM15.9999 17.9234V17.9162H12.5215C12.5215 18.856 12.7165 19.7583 13.0681 20.5764C13.5965 21.8044 14.4766 22.8445 15.5863 23.5821C16.1402 23.9508 16.7543 24.2426 17.4084 24.4431C18.0626 24.6436 18.7586 24.751 19.4765 24.751V21.3354H19.4692C17.5523 21.3354 15.9999 19.8084 15.9999 17.9269V17.9234Z" fill="#DCFF48"/>
</g>
</svg>
