<svg width="64" height="65" viewBox="0 0 64 65" fill="none" xmlns="http://www.w3.org/2000/svg">
<g clip-path="url(#clip0_46_999)">
<path d="M56 37.91L48 29.91H29.3333C28.626 29.91 27.9478 29.629 27.4477 29.1289C26.9476 28.6288 26.6666 27.9506 26.6666 27.2433V11.2433C26.6666 10.5361 26.9476 9.85781 27.4477 9.35771C27.9478 8.85761 28.626 8.57666 29.3333 8.57666H53.3333C54.0405 8.57666 54.7188 8.85761 55.2189 9.35771C55.719 9.85781 56 10.5361 56 11.2433V37.91Z" stroke="#4040F2" stroke-width="4" stroke-linecap="round" stroke-linejoin="round"/>
<path d="M37.3333 40.5765V45.9098C37.3333 46.6171 37.0524 47.2954 36.5523 47.7955C36.0522 48.2955 35.3739 48.5765 34.6667 48.5765H16L8 56.5765V29.9098C8 29.2026 8.28095 28.5243 8.78105 28.0242C9.28115 27.5241 9.95942 27.2432 10.6667 27.2432H16" stroke="#4040F2" stroke-width="4" stroke-linecap="round" stroke-linejoin="round"/>
</g>
<defs>
<clipPath id="clip0_46_999">
<rect width="64" height="64" fill="white" transform="translate(0 0.57666)"/>
</clipPath>
</defs>
</svg>
