<svg width="64" height="64" viewBox="0 0 64 64" fill="none" xmlns="http://www.w3.org/2000/svg">
<g clip-path="url(#clip0_85_325)">
<path d="M48 21.3335C50.1217 21.3335 52.1566 22.1763 53.6569 23.6766C55.1571 25.1769 56 27.2118 56 29.3335C56 31.4552 55.1571 33.4901 53.6569 34.9903C52.1566 36.4906 50.1217 37.3335 48 37.3335" stroke="#DCFF48" stroke-width="4" stroke-linecap="round" stroke-linejoin="round"/>
<path d="M26.6667 21.3335V50.6668C26.6667 51.3741 26.3858 52.0524 25.8857 52.5524C25.3856 53.0525 24.7073 53.3335 24.0001 53.3335H21.3334C20.6262 53.3335 19.9479 53.0525 19.4478 52.5524C18.9477 52.0524 18.6667 51.3741 18.6667 50.6668V37.3335" stroke="#DCFF48" stroke-width="4" stroke-linecap="round" stroke-linejoin="round"/>
<path d="M32 21.3334L44.064 11.28C44.4145 10.988 44.841 10.802 45.2935 10.7438C45.746 10.6855 46.2057 10.7574 46.6188 10.9511C47.0319 11.1448 47.3812 11.4521 47.6258 11.8372C47.8704 12.2223 48.0002 12.6691 48 13.1254V45.5414C48.0002 45.9976 47.8704 46.4444 47.6258 46.8295C47.3812 47.2146 47.0319 47.522 46.6188 47.7156C46.2057 47.9093 45.746 47.9812 45.2935 47.9229C44.841 47.8647 44.4145 47.6787 44.064 47.3867L32 37.3334H10.6667C9.95942 37.3334 9.28115 37.0524 8.78105 36.5523C8.28095 36.0522 8 35.3739 8 34.6667V24C8 23.2928 8.28095 22.6145 8.78105 22.1144C9.28115 21.6143 9.95942 21.3334 10.6667 21.3334H32" stroke="#DCFF48" stroke-width="4" stroke-linecap="round" stroke-linejoin="round"/>
</g>
<defs>
<clipPath id="clip0_85_325">
<rect width="64" height="64" fill="white"/>
</clipPath>
</defs>
</svg>
