<svg width="171" height="28" viewBox="0 0 171 28" fill="none" xmlns="http://www.w3.org/2000/svg">
<g clip-path="url(#clip0_46_233)">
<path d="M49.7531 8.66445C49.0653 8.39206 48.2662 8.25586 47.3583 8.25586C45.3062 8.25586 43.69 8.86648 42.5096 10.0855C42.5028 10.0923 42.496 10.1013 42.4892 10.1081V8.64629H36.4919V27.5732H42.4892V17.2131C42.4892 15.9942 42.782 15.0771 43.3654 14.4688C43.9488 13.8581 44.7478 13.554 45.7602 13.554C46.2528 13.554 46.6954 13.6311 47.0836 13.7878C47.474 13.9444 47.785 14.151 48.0188 14.412L51.5622 9.89477C51.0424 9.34998 50.4386 8.94139 49.7508 8.66899L49.7531 8.66445Z" fill="#4040F2"/>
<path d="M65.8561 10.2103C65.3454 9.72453 64.7575 9.32047 64.0833 8.99587C63.0573 8.50329 61.9087 8.25586 60.6375 8.25586C58.8987 8.25586 57.3461 8.67807 55.9841 9.5225C54.6221 10.3669 53.5439 11.536 52.7516 13.0273C51.9594 14.521 51.5645 16.2144 51.5645 18.1098C51.5645 20.0052 51.9594 21.6872 52.7516 23.1536C53.5439 24.62 54.6266 25.7891 56.0045 26.6585C57.3801 27.5279 58.9259 27.9637 60.6398 27.9637C61.9382 27.9637 63.1004 27.7163 64.1242 27.2237C64.7824 26.9081 65.359 26.5132 65.8561 26.041V27.5755H71.8534V8.64629H65.8561V10.2103ZM61.8837 22.5476C61.0779 22.5476 60.3583 22.3591 59.7227 21.9823C59.0871 21.6055 58.5332 21.0812 58.1564 20.4047C57.7796 19.7305 57.5617 18.9633 57.5617 18.1075C57.5617 17.2517 57.7796 16.4845 58.1564 15.8103C58.5332 15.1361 59.0871 14.6095 59.7227 14.2327C60.3583 13.8559 61.0779 13.6675 61.8837 13.6675C62.6895 13.6675 63.4545 13.8559 64.1037 14.2327C64.7529 14.6095 65.2455 15.1293 65.5838 15.7899C65.922 16.4527 66.0899 17.2109 66.0899 18.0689C66.0899 19.3923 65.7063 20.4705 64.9413 21.3013C64.1741 22.1321 63.1549 22.5476 61.8837 22.5476Z" fill="#4040F2"/>
<path d="M76.0415 13.6697H83.7004L75.4423 24.0684V27.5732H92.2264V22.5475H83.9024L92.2264 12.1511V8.64629H76.0415V13.6697Z" fill="#4040F2"/>
<path d="M108.2 24.7494C107.317 25.1262 106.357 25.3146 105.32 25.3146C104.046 25.3146 102.904 25.0173 101.892 24.418C100.879 23.821 100.087 22.997 99.5175 21.946C98.9455 20.895 98.6595 19.7078 98.6595 18.3822C98.6595 17.0565 98.9455 15.8829 99.5175 14.8569C100.087 13.8309 100.879 13.0205 101.892 12.4235C102.904 11.8265 104.046 11.5269 105.32 11.5269C106.357 11.5269 107.313 11.7153 108.182 12.0921C109.051 12.4689 109.798 13.0069 110.42 13.7083L112.25 11.8379C111.419 10.9026 110.407 10.1762 109.213 9.65642C108.019 9.1366 106.72 8.87783 105.317 8.87783C103.526 8.87783 101.91 9.29323 100.469 10.124C99.0272 10.9548 97.8922 12.0898 97.0614 13.5313C96.2306 14.9727 95.8152 16.5889 95.8152 18.3799C95.8152 20.1709 96.2306 21.7939 97.0614 23.2467C97.8922 24.7017 99.0272 25.8503 100.469 26.6925C101.91 27.5369 103.526 27.9591 105.317 27.9591C106.72 27.9591 108.023 27.7004 109.231 27.1805C110.438 26.6607 111.469 25.9207 112.327 24.9605L110.497 23.1309C109.848 23.8323 109.081 24.3703 108.2 24.7471V24.7494Z" fill="#4040F2"/>
<path d="M169.457 12.4621C168.847 11.3453 167.998 10.4691 166.906 9.83348C165.816 9.19789 164.57 8.8801 163.167 8.8801C161.764 8.8801 160.505 9.19108 159.39 9.81532C158.423 10.3556 157.631 11.0706 157.013 11.9627V0H154.249V27.5732H157.013V16.7864C157.013 15.749 157.247 14.8274 157.715 14.0216C158.182 13.218 158.818 12.5869 159.624 12.133C160.427 11.679 161.351 11.452 162.389 11.452C163.946 11.452 165.206 11.9514 166.166 12.9501C167.126 13.9489 167.607 15.2428 167.607 16.825V27.5732H170.372V16.3574C170.372 14.8773 170.066 13.5789 169.457 12.4621Z" fill="#4040F2"/>
<path d="M130.425 12.2919C130.373 12.2124 130.325 12.1307 130.269 12.0535C129.567 11.0547 128.666 10.2761 127.563 9.71771C126.46 9.1593 125.207 8.8801 123.804 8.8801C122.09 8.8801 120.551 9.30231 119.189 10.1467C117.827 10.9912 116.742 12.133 115.936 13.5744C115.13 15.0158 114.729 16.6456 114.729 18.4616C114.729 20.2776 115.13 21.862 115.936 23.2898C116.74 24.7176 117.832 25.8549 119.207 26.697C120.583 27.5415 122.129 27.9637 123.842 27.9637C125.245 27.9637 126.491 27.6845 127.581 27.1261C128.671 26.5677 129.56 25.7822 130.248 24.7698C130.31 24.679 130.366 24.586 130.423 24.4929V27.5732H133.188V9.26826H130.423V12.2919H130.425ZM128.866 23.4442C127.724 24.7176 126.192 25.3532 124.271 25.3532C123 25.3532 121.856 25.0559 120.844 24.4566C119.831 23.8596 119.032 23.0424 118.449 22.0028C117.866 20.9654 117.573 19.7691 117.573 18.4208C117.573 17.0724 117.866 15.8761 118.449 14.8388C119.032 13.8014 119.825 12.9819 120.826 12.3849C121.824 11.7879 122.962 11.4883 124.233 11.4883C125.504 11.4883 126.621 11.7811 127.581 12.3645C128.541 12.9479 129.281 13.7605 129.801 14.7979C130.321 15.8375 130.58 17.0429 130.58 18.4185C130.58 20.4955 130.008 22.1707 128.866 23.4419V23.4442Z" fill="#4040F2"/>
<path d="M141.441 12.0535C142.052 11.5995 142.942 11.3725 144.109 11.3725C145.121 11.3725 146.036 11.5677 146.855 11.9559C147.673 12.3463 148.342 12.8911 148.862 13.5925L150.653 11.8015C149.977 10.8413 149.082 10.115 147.965 9.62011C146.849 9.12752 145.602 8.8801 144.227 8.8801C142.851 8.8801 141.773 9.09347 140.838 9.5225C139.902 9.95152 139.176 10.5485 138.656 11.3135C138.136 12.0807 137.878 12.9819 137.878 14.0193C137.878 15.1361 138.125 16.0259 138.618 16.6865C139.11 17.3493 139.741 17.8692 140.506 18.2437C141.271 18.6205 142.084 18.9315 142.94 19.1789C143.795 19.4263 144.615 19.6851 145.393 19.9575C146.172 20.2299 146.801 20.5818 147.282 21.0085C147.763 21.4375 148.002 22.0413 148.002 22.8199C148.002 23.6508 147.657 24.3 146.969 24.7676C146.281 25.2352 145.339 25.469 144.145 25.469C142.951 25.469 141.97 25.2556 141.049 24.8266C140.127 24.3976 139.303 23.7438 138.577 22.8608L136.786 24.6518C137.356 25.3283 138.012 25.9116 138.752 26.4042C139.492 26.8968 140.316 27.2804 141.224 27.5528C142.132 27.8252 143.08 27.9614 144.066 27.9614C146.09 27.9614 147.693 27.4756 148.876 26.5018C150.056 25.528 150.648 24.2228 150.648 22.5884C150.648 21.4194 150.408 20.4932 149.929 19.8032C149.448 19.1154 148.819 18.5706 148.04 18.1665C147.262 17.7647 146.444 17.4401 145.586 17.1927C144.728 16.9453 143.918 16.7001 143.153 16.4527C142.386 16.2053 141.757 15.8829 141.264 15.4789C140.772 15.0771 140.524 14.5255 140.524 13.8241C140.524 13.1227 140.829 12.5075 141.439 12.0512L141.441 12.0535Z" fill="#4040F2"/>
<path d="M11.9899 5.99724V11.9922H0V0H5.99497V5.99497H11.9899V5.99724ZM5.99497 15.6015C5.99497 15.6015 5.99497 15.5924 5.99497 15.5878H0C0 17.2358 0.335955 18.8203 0.944305 20.2549C1.85683 22.4091 3.37317 24.2341 5.28448 25.528C6.24013 26.1749 7.29793 26.6857 8.4261 27.0375C9.55428 27.3894 10.7551 27.5778 11.9899 27.5778V21.5828C11.9899 21.5828 11.9809 21.5828 11.9763 21.5828C8.67353 21.5828 5.99497 18.9043 5.99497 15.6015Z" fill="#4040F2"/>
<path d="M32.869 12.7731C32.0382 11.3453 30.9078 10.2285 29.48 9.42489C28.0522 8.62132 26.3906 8.21727 24.4951 8.21727C22.5997 8.21727 20.8473 8.64629 19.3151 9.50207C17.7828 10.3578 16.5752 11.5337 15.6945 13.0273C14.8115 14.521 14.3711 16.2007 14.3711 18.0712C14.3711 19.9416 14.8251 21.7054 15.7331 23.2126C16.6411 24.7176 17.8873 25.8935 19.4717 26.7379C21.0539 27.5823 22.8721 28.0045 24.9242 28.0045C26.5336 28.0045 28 27.739 29.3256 27.2055C30.649 26.6743 31.7794 25.8481 32.7147 24.7335L29.4051 21.4625C28.833 22.1117 28.1725 22.5975 27.4188 22.9221C26.6652 23.2467 25.8344 23.4079 24.9264 23.4079C23.914 23.4079 23.0855 23.1945 22.3455 22.7655C21.6055 22.3364 21.0811 21.7213 20.6793 20.9154C20.5545 20.6657 20.4501 20.4024 20.3706 20.1232C20.3479 20.0392 20.2866 19.7873 20.2866 19.7873H33.8769C33.9677 19.4263 34.0267 19.0949 34.0585 18.793C34.0971 18.4162 34.1175 18.0462 34.1175 17.683C34.1175 15.8398 33.7021 14.2032 32.8713 12.7754L32.869 12.7731ZM22.1888 13.4359C22.8766 12.9955 23.6394 12.7731 24.5746 12.7731C25.4304 12.7731 26.1636 12.9683 26.7742 13.3565C27.3848 13.7469 27.8456 14.2985 28.1566 15.0113C28.2383 15.1997 28.3087 15.4017 28.3722 15.6128H20.4909C20.5363 15.4925 20.584 15.3767 20.6385 15.2632C21.0153 14.4846 21.4988 13.874 22.1866 13.4336L22.1888 13.4359Z" fill="#4040F2"/>
</g>
<defs>
<clipPath id="clip0_46_233">
<rect width="170.372" height="28" fill="white"/>
</clipPath>
</defs>
</svg>
