<svg width="147" height="25" viewBox="0 0 147 25" fill="none" xmlns="http://www.w3.org/2000/svg">
<g clip-path="url(#clip0_46_478)">
<path d="M43.3026 7.86829C42.7132 7.63481 42.0284 7.51807 41.2503 7.51807C39.4918 7.51807 38.1068 8.04146 37.0953 9.08629C37.0895 9.09212 37.0836 9.09991 37.0778 9.10574V7.85272H31.9385V24.0758H37.0778V15.1957C37.0778 14.1509 37.3287 13.3648 37.8287 12.8434C38.3286 12.32 39.0133 12.0593 39.8809 12.0593C40.303 12.0593 40.6823 12.1254 41.015 12.2597C41.3495 12.3939 41.616 12.571 41.8164 12.7948L44.8529 8.92285C44.4075 8.45589 43.89 8.10566 43.3006 7.87218L43.3026 7.86829Z" fill="white"/>
<path d="M57.1021 9.1933C56.6644 8.77692 56.1606 8.43059 55.5829 8.15236C54.7036 7.73015 53.7193 7.51807 52.63 7.51807C51.1399 7.51807 49.8094 7.87996 48.6422 8.60376C47.4751 9.32755 46.5511 10.3296 45.8722 11.6079C45.1933 12.8882 44.8549 14.3396 44.8549 15.9643C44.8549 17.5889 45.1933 19.0307 45.8722 20.2876C46.5511 21.5445 47.479 22.5465 48.6597 23.2917C49.8386 24.0369 51.1633 24.4105 52.6319 24.4105C53.7446 24.4105 54.7406 24.1984 55.6179 23.7762C56.182 23.5057 56.6761 23.1672 57.1021 22.7625V24.0778H62.2414V7.85272H57.1021V9.1933ZM53.6979 19.7681C53.0074 19.7681 52.3907 19.6066 51.8461 19.2836C51.3014 18.9606 50.8267 18.5112 50.5038 17.9314C50.1809 17.3535 49.9942 16.6959 49.9942 15.9623C49.9942 15.2288 50.1809 14.5712 50.5038 13.9933C50.8267 13.4154 51.3014 12.964 51.8461 12.6411C52.3907 12.3181 53.0074 12.1566 53.6979 12.1566C54.3885 12.1566 55.044 12.3181 55.6004 12.6411C56.1567 12.964 56.5788 13.4096 56.8687 13.9758C57.1585 14.5439 57.3024 15.1938 57.3024 15.9293C57.3024 17.0636 56.9737 17.9878 56.3182 18.6999C55.6607 19.412 54.7873 19.7681 53.6979 19.7681Z" fill="white"/>
<path d="M65.8304 12.1586H72.3936L65.3168 21.0718V24.0759H79.6999V19.7681H72.5667L79.6999 10.8569V7.85278H65.8304V12.1586Z" fill="white"/>
<path d="M93.3886 21.6555C92.6319 21.9785 91.809 22.14 90.92 22.14C89.8288 22.14 88.8503 21.8851 87.9827 21.3714C87.1152 20.8597 86.4363 20.1534 85.948 19.2526C85.4578 18.3517 85.2127 17.3341 85.2127 16.1978C85.2127 15.0616 85.4578 14.0556 85.948 13.1762C86.4363 12.2967 87.1152 11.6021 87.9827 11.0904C88.8503 10.5787 89.8288 10.3219 90.92 10.3219C91.809 10.3219 92.628 10.4834 93.373 10.8064C94.118 11.1293 94.758 11.5905 95.291 12.1917L96.8589 10.5884C96.1469 9.78682 95.2793 9.1642 94.2561 8.71864C93.2329 8.27308 92.1203 8.05127 90.9181 8.05127C89.3833 8.05127 87.9983 8.40733 86.7631 9.11945C85.5278 9.83157 84.5552 10.8044 83.8433 12.0399C83.1313 13.2754 82.7753 14.6608 82.7753 16.1959C82.7753 17.731 83.1313 19.1222 83.8433 20.3674C84.5552 21.6146 85.5278 22.5991 86.7631 23.321C87.9983 24.0448 89.3833 24.4067 90.9181 24.4067C92.1203 24.4067 93.2368 24.1849 94.2717 23.7393C95.3066 23.2937 96.1897 22.6595 96.925 21.8364L95.3571 20.2682C94.8008 20.8694 94.1433 21.3306 93.3886 21.6535V21.6555Z" fill="white"/>
<path d="M145.883 11.1235C145.36 10.1662 144.632 9.41514 143.696 8.87035C142.763 8.32556 141.695 8.05316 140.493 8.05316C139.29 8.05316 138.211 8.31972 137.256 8.85478C136.427 9.31786 135.748 9.93075 135.219 10.6954V0.44165H132.85V24.0759H135.219V14.83C135.219 13.9408 135.419 13.1509 135.82 12.4601C136.221 11.7714 136.765 11.2305 137.456 10.8413C138.145 10.4522 138.936 10.2576 139.825 10.2576C141.16 10.2576 142.239 10.6857 143.062 11.5418C143.885 12.3979 144.297 13.5069 144.297 14.8631V24.0759H146.667V14.4622C146.667 13.1937 146.404 12.0807 145.883 11.1235Z" fill="white"/>
<path d="M112.434 10.9776C112.39 10.9095 112.349 10.8394 112.3 10.7733C111.699 9.91719 110.927 9.24982 109.981 8.77118C109.036 8.29254 107.962 8.05322 106.76 8.05322C105.292 8.05322 103.973 8.41512 102.805 9.13891C101.638 9.86271 100.709 10.8414 100.018 12.0769C99.3274 13.3124 98.9831 14.7094 98.9831 16.266C98.9831 17.8225 99.3274 19.1806 100.018 20.4044C100.707 21.6283 101.642 22.603 102.821 23.3249C104 24.0487 105.325 24.4106 106.793 24.4106C107.995 24.4106 109.063 24.1713 109.997 23.6926C110.931 23.214 111.693 22.5408 112.283 21.673C112.335 21.5952 112.384 21.5154 112.432 21.4356V24.0759H114.802V8.38594H112.432V10.9776H112.434ZM111.098 20.5367C110.12 21.6283 108.807 22.173 107.161 22.173C106.072 22.173 105.091 21.9182 104.224 21.4045C103.356 20.8928 102.671 20.1923 102.171 19.3012C101.671 18.412 101.42 17.3867 101.42 16.2309C101.42 15.0752 101.671 14.0498 102.171 13.1606C102.671 12.2715 103.35 11.5691 104.208 11.0574C105.064 10.5456 106.038 10.2888 107.128 10.2888C108.217 10.2888 109.174 10.5398 109.997 11.0398C110.82 11.5399 111.454 12.2364 111.899 13.1256C112.345 14.0167 112.567 15.0499 112.567 16.229C112.567 18.0093 112.077 19.4452 111.098 20.5348V20.5367Z" fill="white"/>
<path d="M121.875 10.7733C122.398 10.3842 123.16 10.1896 124.16 10.1896C125.028 10.1896 125.812 10.3569 126.514 10.6896C127.214 11.0243 127.788 11.4912 128.234 12.0925L129.768 10.5573C129.189 9.73429 128.422 9.11167 127.465 8.68752C126.508 8.2653 125.44 8.05322 124.262 8.05322C123.083 8.05322 122.159 8.23612 121.357 8.60385C120.556 8.97159 119.933 9.4833 119.488 10.139C119.042 10.7966 118.821 11.5691 118.821 12.4582C118.821 13.4155 119.033 14.1782 119.455 14.7444C119.877 15.3126 120.418 15.7581 121.073 16.0792C121.729 16.4021 122.425 16.6687 123.159 16.8808C123.892 17.0929 124.594 17.3147 125.261 17.5482C125.929 17.7816 126.467 18.0832 126.88 18.449C127.292 18.8167 127.496 19.3343 127.496 20.0017C127.496 20.7138 127.201 21.2702 126.611 21.6711C126.022 22.0719 125.215 22.2723 124.191 22.2723C123.168 22.2723 122.328 22.0894 121.538 21.7216C120.748 21.3539 120.042 20.7936 119.42 20.0367L117.885 21.5718C118.373 22.1516 118.935 22.6517 119.57 23.0739C120.204 23.4961 120.91 23.8249 121.688 24.0584C122.466 24.2919 123.279 24.4086 124.123 24.4086C125.859 24.4086 127.232 23.9923 128.245 23.1576C129.257 22.3229 129.765 21.2041 129.765 19.8032C129.765 18.8012 129.558 18.0073 129.148 17.4158C128.736 16.8263 128.197 16.3593 127.53 16.013C126.862 15.6686 126.162 15.3904 125.427 15.1783C124.691 14.9662 123.997 14.7561 123.341 14.544C122.684 14.3319 122.145 14.0557 121.723 13.7093C121.301 13.3649 121.089 12.8921 121.089 12.2909C121.089 11.6897 121.349 11.1624 121.873 10.7713L121.875 10.7733Z" fill="white"/>
<path d="M10.9415 5.58215V10.7207H0.666748V0.44165H5.80413V5.5802H10.9415V5.58215ZM5.80413 13.8143C5.80413 13.8143 5.80413 13.8065 5.80413 13.8027H0.666748C0.666748 15.2152 0.954644 16.5733 1.47597 17.803C2.25795 19.6494 3.55738 21.2138 5.19527 22.3228C6.01421 22.8773 6.9207 23.3151 7.88748 23.6167C8.85426 23.9183 9.8833 24.0798 10.9415 24.0798V18.9412C10.9415 18.9412 10.9337 18.9412 10.9298 18.9412C8.09951 18.9412 5.80413 16.6453 5.80413 13.8143Z" fill="white"/>
<path d="M28.8338 11.39C28.1219 10.1661 27.1531 9.20886 25.9296 8.52009C24.706 7.83132 23.2821 7.48499 21.6578 7.48499C20.0336 7.48499 18.5318 7.85272 17.2188 8.58624C15.9058 9.31976 14.8709 10.3276 14.1161 11.6079C13.3594 12.8881 12.9821 14.328 12.9821 15.9312C12.9821 17.5344 13.3711 19.0462 14.1492 20.3382C14.9273 21.6282 15.9952 22.636 17.353 23.3598C18.7088 24.0836 20.267 24.4455 22.0255 24.4455C23.4047 24.4455 24.6613 24.2179 25.7973 23.7606C26.9314 23.3053 27.9001 22.5971 28.7015 21.6418L25.8654 18.838C25.3752 19.3945 24.8091 19.8109 24.1633 20.0891C23.5175 20.3674 22.8055 20.5055 22.0274 20.5055C21.1598 20.5055 20.4498 20.3226 19.8157 19.9549C19.1815 19.5871 18.7322 19.0599 18.3879 18.3691C18.2809 18.1551 18.1914 17.9294 18.1233 17.6901C18.1039 17.6181 18.0514 17.4021 18.0514 17.4021H29.6975C29.7753 17.0928 29.8259 16.8087 29.8531 16.5499C29.8862 16.2269 29.9037 15.9098 29.9037 15.5985C29.9037 14.0186 29.5477 12.6158 28.8358 11.3919L28.8338 11.39ZM19.6815 11.9581C20.2709 11.5806 20.9245 11.39 21.7259 11.39C22.4593 11.39 23.0876 11.5573 23.6108 11.89C24.1341 12.2247 24.529 12.6975 24.7955 13.3084C24.8655 13.4699 24.9258 13.6431 24.9803 13.824H18.2264C18.2653 13.7209 18.3062 13.6217 18.3529 13.5244C18.6758 12.857 19.0901 12.3336 19.6795 11.9562L19.6815 11.9581Z" fill="white"/>
</g>
<defs>
<clipPath id="clip0_46_478">
<rect width="146" height="24" fill="white" transform="translate(0.666748 0.44165)"/>
</clipPath>
</defs>
</svg>
