<svg width="32" height="33" viewBox="0 0 32 33" fill="none" xmlns="http://www.w3.org/2000/svg">
<path d="M31.9978 16.0963C31.9978 24.1773 26.0078 30.858 18.2265 31.9421C17.4989 32.043 16.7545 32.0957 15.9989 32.0957C15.1267 32.0957 14.2702 32.0262 13.4361 31.8917C5.81838 30.6652 0 24.0595 0 16.0963C0 7.25963 7.16368 0.0957031 16 0.0957031C24.8363 0.0957031 32 7.25963 32 16.0963H31.9978Z" fill="#4040F2"/>
<path d="M6.48884 7.15332L13.8678 17.0191L6.44287 25.0407H8.1144L14.6155 18.018L19.8678 25.0407H25.555L17.7613 14.6199L24.6727 7.15332H23.0012L17.0146 13.621L12.1772 7.15332H6.48995H6.48884ZM8.94623 8.3843H11.5583L23.0953 23.8097H20.4832L8.94623 8.3843Z" fill="white"/>
</svg>
